HIERARCHY
ROOT Hips
{
	OFFSET 50.843700 0.717040 84.458603
	CHANNELS 6 Xposition Yposition Zposition Xrotation Yrotation Zrotation
	JOINT spine
	{
		OFFSET 0.000000 -0.342408 5.954376
		CHANNELS 3 Xrotation Yrotation Zrotation
		JOINT spine1
		{
			OFFSET 0.000000 -0.000001 8.856018
			CHANNELS 3 Xrotation Yrotation Zrotation
			JOINT spine2
			{
				OFFSET 0.000000 -0.000001 8.485672
				CHANNELS 3 Xrotation Yrotation Zrotation
				JOINT Neck
				{
					OFFSET 0.000000 -1.038704 21.786301
					CHANNELS 3 Xrotation Yrotation Zrotation
					JOINT Head
					{
						OFFSET 0.000000 -0.000001 6.582199
						CHANNELS 3 Xrotation Yrotation Zrotation
						End Site
						{
							OFFSET 0.000000 5.254357 15.932602
						}
					}
				}
				JOINT RightShoulder
				{
					OFFSET -3.573071 0.497523 9.163864
					CHANNELS 3 Xrotation Yrotation Zrotation
					JOINT RightArm
					{
						OFFSET 0.000000 -0.000002 12.019196
						CHANNELS 3 Xrotation Yrotation Zrotation
						JOINT RightArmRoll
						{
							OFFSET 0.000000 -0.000001 6.067551
							CHANNELS 3 Xrotation Yrotation Zrotation
							JOINT RightForeArm
							{
								OFFSET 0.000000 -0.000003 17.672607
								CHANNELS 3 Xrotation Yrotation Zrotation
								JOINT RightForeArmRoll
								{
									OFFSET 0.000000 -0.000001 6.808716
									CHANNELS 3 Xrotation Yrotation Zrotation
									JOINT RightHand
									{
										OFFSET 0.000000 -0.000002 13.663605
										CHANNELS 3 Xrotation Yrotation Zrotation
										End Site
										{
											OFFSET 0.000000 -0.000000 0.100006
										}
									}
								}
							}
						}
					}
				}
				JOINT LeftShoulder
				{
					OFFSET 3.573071 0.497523 9.163864
					CHANNELS 3 Xrotation Yrotation Zrotation
					JOINT LeftArm
					{
						OFFSET 0.000000 -0.000002 12.019196
						CHANNELS 3 Xrotation Yrotation Zrotation
						JOINT LeftArmRoll
						{
							OFFSET 0.000000 -0.000001 6.067535
							CHANNELS 3 Xrotation Yrotation Zrotation
							JOINT LeftForeArm
							{
								OFFSET 0.000000 -0.000003 17.672592
								CHANNELS 3 Xrotation Yrotation Zrotation
								JOINT LeftForeArmRoll
								{
									OFFSET 0.000000 -0.000001 6.808716
									CHANNELS 3 Xrotation Yrotation Zrotation
									JOINT LeftHand
									{
										OFFSET 0.000000 -0.000002 13.663605
										CHANNELS 3 Xrotation Yrotation Zrotation
										End Site
										{
											OFFSET 0.000000 -0.000000 0.100006
										}
									}
								}
							}
						}
					}
				}
			}
		}
	}
	JOINT RightUpLeg
	{
		OFFSET -5.277740 0.811858 -0.967796
		CHANNELS 3 Xrotation Yrotation Zrotation
		JOINT RightUpLegRoll
		{
			OFFSET 0.000000 -0.000003 16.021400
			CHANNELS 3 Xrotation Yrotation Zrotation
			JOINT RightLeg
			{
				OFFSET 0.000000 0.000003 -19.840103
				CHANNELS 3 Xrotation Yrotation Zrotation
				JOINT RightLegRoll
				{
					OFFSET 0.000000 -0.000003 19.904999
					CHANNELS 3 Xrotation Yrotation Zrotation
					JOINT RightFoot
					{
						OFFSET 0.000000 -0.000003 16.567497
						CHANNELS 3 Xrotation Yrotation Zrotation
						JOINT RightToeBase
						{
							OFFSET 0.000000 -0.000002 13.849602
							CHANNELS 3 Xrotation Yrotation Zrotation
							End Site
							{
								OFFSET 0.005871 0.773116 6.707275
							}
						}
					}
				}
			}
		}
	}
	JOINT LeftUpLeg
	{
		OFFSET 5.277740 0.811858 -0.967796
		CHANNELS 3 Xrotation Yrotation Zrotation
		JOINT LeftUpLegRoll
		{
			OFFSET 0.000000 -0.000003 16.021500
			CHANNELS 3 Xrotation Yrotation Zrotation
			JOINT LeftLeg
			{
				OFFSET 0.000000 -0.000003 19.840004
				CHANNELS 3 Xrotation Yrotation Zrotation
				JOINT LeftLegRoll
				{
					OFFSET 0.000000 -0.000003 20.089005
					CHANNELS 3 Xrotation Yrotation Zrotation
					JOINT LeftFoot
					{
						OFFSET 0.000000 -0.000003 16.383499
						CHANNELS 3 Xrotation Yrotation Zrotation
						JOINT LeftToeBase
						{
							OFFSET 0.000000 -0.000002 13.849594
							CHANNELS 3 Xrotation Yrotation Zrotation
							End Site
							{
								OFFSET -0.026310 0.773116 6.707275
							}
						}
					}
				}
			}
		}
	}
}
MOTION
Frames: 5
Frame Time: 0.041667
54.821999 0.549505 84.087502 -8.358896 -1.523183 -0.415964 -0.094589 0.011848 0.108513 3.813890 0.035326 0.202509 5.458972 0.037734 0.205387 19.432904 9.419131 -4.627842 -0.984798 -13.418790 -4.232762 0.724646 -68.215824 -0.231800 -39.956357 -118.770706 -49.799247 0.000000 -0.000000 0.000000 -0.019199 3.640611 -1.990749 -0.000004 0.000006 -3.011611 -5.000144 -7.999940 -0.000000 -7.632146 66.748645 9.508086 -36.283573 123.621957 49.480605 0.000000 -0.000000 0.000001 -0.017471 -3.636272 1.990932 -0.000002 -0.000004 3.011589 -5.000168 7.999950 -0.000011 -0.754074 -176.079326 5.223134 -179.999991 0.000005 -1.107005 165.648575 -3.232116 -0.867453 -0.000003 -0.000001 0.234963 71.395646 6.853358 2.094955 25.456885 -7.354476 -0.000007 1.577791 -177.346996 1.882009 -0.000005 -0.000004 -1.141510 -11.145565 1.782517 0.513496 -0.000001 0.000004 -0.188767 70.404067 -6.841838 -2.148907 25.456962 7.355741 -0.000011 
54.820702 0.539692 84.085289 -8.345444 -1.511234 -0.427210 -0.096289 0.011365 0.108512 3.810781 0.033465 0.202689 5.455862 0.035876 0.205358 19.370145 9.438081 -4.626017 -0.981337 -13.428604 -4.236082 0.763598 -68.209541 -0.187483 -39.942834 -118.782440 -49.796577 -0.000000 0.000000 -0.000000 -0.019196 3.640611 -1.990748 -0.000003 0.000007 -3.011609 -5.000144 -7.999939 -0.000002 -7.668479 66.748188 9.549255 -36.300181 123.626465 49.497660 -0.000000 0.000000 -0.000001 -0.017473 -3.636271 1.990932 -0.000001 -0.000003 3.011589 -5.000164 7.999950 -0.000007 -0.760401 -176.094339 5.211202 -179.999991 0.000005 -1.107005 165.657386 -3.225466 -0.866224 -0.000003 -0.000001 0.234963 71.391166 6.853356 2.095030 25.456885 -7.354478 -0.000005 1.563380 -177.359987 1.871448 -0.000005 -0.000004 -1.141510 -11.154803 1.787876 0.514119 -0.000001 0.000004 -0.188767 70.404804 -6.841818 -2.148858 25.456965 7.355741 -0.000011 
54.821701 0.529888 84.086891 -8.332395 -1.499292 -0.438502 -0.097978 0.010932 0.108513 3.807713 0.031627 0.202859 5.452782 0.034041 0.205309 19.307995 9.457169 -4.624183 -0.978009 -13.439012 -4.239372 0.802935 -68.203257 -0.142720 -39.930150 -118.793314 -49.794838 -0.000000 0.000000 0.000000 -0.019199 3.640610 -1.990751 -0.000003 0.000006 -3.011610 -5.000146 -7.999940 -0.000001 -7.704670 66.748024 9.590293 -36.316939 123.631041 49.514343 0.000001 -0.000000 -0.000001 -0.017473 -3.636271 1.990931 0.000000 -0.000004 3.011590 -5.000164 7.999950 -0.000007 -0.766192 -176.108341 5.199384 -179.999991 0.000005 -1.107005 165.666389 -3.219783 -0.865233 -0.000002 -0.000001 0.234963 71.386672 6.853355 2.095003 25.456885 -7.354477 -0.000006 1.549508 -177.372950 1.860847 -0.000005 -0.000004 -1.141510 -11.163940 1.793245 0.514720 -0.000001 0.000004 -0.188767 70.405528 -6.841800 -2.148909 25.456960 7.355741 -0.000012 
54.828800 0.529185 84.089493 -8.319614 -1.487358 -0.449829 -0.099657 0.010533 0.108512 3.804671 0.029803 0.203021 5.449742 0.032222 0.205246 19.246158 9.476399 -4.622336 -0.974768 -13.449626 -4.242634 0.842528 -68.196755 -0.097658 -39.916329 -118.804925 -49.791700 -0.000002 -0.000000 0.000000 -0.019198 3.640611 -1.990749 -0.000002 0.000007 -3.011610 -5.000144 -7.999939 -0.000001 -7.740808 66.748153 9.631278 -36.334581 123.634811 49.531699 0.000000 0.000000 0.000001 -0.017471 -3.636271 1.990933 0.000000 -0.000003 3.011588 -5.000164 7.999950 -0.000009 -0.771603 -176.123354 5.187688 -179.999991 0.000006 -1.107004 165.675404 -3.213121 -0.863993 -0.000003 -0.000000 0.234963 71.382184 6.853355 2.095079 25.456889 -7.354478 -0.000005 1.536027 -177.385941 1.850212 -0.000005 -0.000004 -1.141510 -11.172978 1.798635 0.515306 -0.000002 0.000004 -0.188767 70.406287 -6.841811 -2.148964 25.456960 7.355740 -0.000011 
54.832703 0.527098 84.087502 -8.306996 -1.475433 -0.461177 -0.101333 0.010152 0.108512 3.801642 0.027989 0.203178 5.446711 0.030411 0.205173 19.184521 9.495618 -4.620427 -0.971589 -13.460536 -4.245884 0.882254 -68.190157 -0.052440 -39.903509 -118.815730 -49.789733 0.000001 -0.000000 0.000000 -0.019195 3.640611 -1.990748 -0.000004 0.000006 -3.011612 -5.000145 -7.999939 -0.000000 -7.776881 66.748481 9.672212 -36.352367 123.638623 49.548952 0.000000 -0.000000 0.000001 -0.017472 -3.636271 1.990933 -0.000003 -0.000003 3.011589 -5.000164 7.999950 -0.000005 -0.776798 -176.138353 5.176049 -179.999991 0.000005 -1.107006 165.684407 -3.206472 -0.862772 -0.000003 -0.000000 0.234964 71.377792 6.853318 2.095045 25.456882 -7.354477 -0.000006 1.522769 -177.399916 1.839525 -0.000005 -0.000004 -1.141510 -11.181917 1.804034 0.515884 -0.000001 0.000004 -0.188767 70.407134 -6.841824 -2.148915 25.456967 7.355741 -0.000011 
